<?xml version="1.0" standalone="no"?>
<!DOCTYPE svg PUBLIC "-//W3C//DTD SVG 1.1//EN" "http://www.w3.org/Graphics/SVG/1.1/DTD/svg11.dtd" >
<svg xmlns="http://www.w3.org/2000/svg">
<metadata></metadata>
<defs>
<font id="function_probold_oblique" horiz-adv-x="1228" >
<font-face units-per-em="2048" ascent="1542" descent="-506" />
<missing-glyph horiz-adv-x="512" />
<glyph horiz-adv-x="2048" />
<glyph horiz-adv-x="2048" />
<glyph unicode="&#xd;" horiz-adv-x="2048" />
<glyph unicode=" "  horiz-adv-x="512" />
<glyph unicode="&#x09;" horiz-adv-x="512" />
<glyph unicode="&#xa0;" horiz-adv-x="512" />
<glyph unicode="!" horiz-adv-x="688" d="M102 184q0 88 59.5 145.5t151.5 57.5q89 0 146 -57t57 -146q0 -90 -59.5 -150.5t-147.5 -60.5q-89 0 -148 60t-59 151zM170 442l115 924h344l-113 -924h-346z" />
<glyph unicode="&#x22;" horiz-adv-x="833" d="M176 817l19 549h284l-117 -549h-186zM557 817l18 549h285l-117 -549h-186z" />
<glyph unicode="#" d="M53 375l29 235h203l32 172h-184l29 236h200l68 348h266l-67 -348h149l66 348h270l-67 -348h184l-29 -236h-198l-33 -172h186l-29 -235h-202l-72 -375h-270l71 375h-147l-74 -375h-266l74 375h-189zM551 610h149l33 172h-147z" />
<glyph unicode="$" d="M94 129l154 258q91 -60 153.5 -84t128.5 -24q83 0 134 36.5t51 96.5q0 46 -31.5 77t-126.5 78q-154 79 -215 140q-98 91 -98 251q0 159 97.5 268.5t274.5 147.5l29 244h209l-29 -238q92 -14 157.5 -38.5t152.5 -79.5l-150 -261q-133 101 -240 101q-69 0 -109 -31.5 t-40 -85.5q0 -50 35.5 -83t136.5 -79q166 -76 232.5 -162t66.5 -223q0 -175 -110 -294t-304 -154l-28 -242h-209l28 238q-164 24 -350 143z" />
<glyph unicode="%" horiz-adv-x="1697" d="M123 985q0 174 94.5 285.5t241.5 111.5q132 0 208 -84t76 -229q0 -73 -24 -148.5t-64 -134.5q-81 -118 -239 -118q-135 0 -214 85.5t-79 231.5zM309 985q0 -77 28 -120.5t77 -43.5q62 0 102.5 71.5t40.5 180.5q0 75 -25 115.5t-71 40.5q-65 0 -108.5 -70t-43.5 -174z M397 0l785 1366h170l-785 -1366h-170zM1004 301q0 174 94 285.5t241 111.5q132 0 209.5 -84t77.5 -229q0 -73 -24 -148.5t-64 -134.5q-84 -118 -240 -118q-136 0 -215 85.5t-79 231.5zM1190 301q0 -77 28.5 -120.5t77.5 -43.5q61 0 102.5 72.5t41.5 179.5q0 75 -25.5 115.5 t-71.5 40.5q-66 0 -109.5 -70t-43.5 -174z" />
<glyph unicode="&#x26;" horiz-adv-x="1527" d="M94 350q0 222 225 340q60 33 228 86q-67 95 -92 158t-25 137q0 142 116.5 232t301.5 90q182 0 293.5 -97.5t111.5 -255.5q0 -45 -9.5 -83t-31.5 -69.5t-44 -55.5t-60 -49.5t-66.5 -41.5t-76.5 -41l155 -213l160 119l145 -196l-157 -125l202 -285h-370l-80 115 q-236 -154 -481 -154q-202 0 -323.5 106t-121.5 283zM438 358q0 -49 42 -80.5t108 -31.5q58 0 118 20t154 72l-166 233q-138 -63 -197 -112t-59 -101zM733 1049q0 -27 13 -52.5t55 -81.5q2 -2 22 -30q91 41 124.5 74.5t33.5 84.5q0 50 -35 80.5t-92 30.5q-52 0 -86.5 -30 t-34.5 -76z" />
<glyph unicode="'" horiz-adv-x="452" d="M176 817l19 549h284l-117 -549h-186z" />
<glyph unicode="(" horiz-adv-x="772" d="M139 389q0 298 95 567.5t307 577.5l223 -133q-162 -237 -246 -498.5t-84 -529.5q0 -358 115 -625l-256 -110q-82 200 -118 376t-36 375z" />
<glyph unicode=")" horiz-adv-x="772" d="M37 -227q161 235 245.5 497.5t84.5 530.5q0 353 -115 624l254 109q83 -199 119.5 -375t36.5 -377q0 -296 -95 -566.5t-307 -577.5z" />
<glyph unicode="*" d="M317 1202l91 195l215 -121l12 246l213 -25l-47 -244l237 66l41 -211l-243 -29l135 -207l-189 -104l-104 223l-154 -190l-157 145l182 168z" />
<glyph unicode="+" d="M131 561v268h375v365h274v-365h375v-268h-375v-368h-274v368h-375z" />
<glyph unicode="," horiz-adv-x="628" d="M-61 -305l309 647h313l-373 -647h-249z" />
<glyph unicode="-" horiz-adv-x="520" d="M-16 328l34 286h521l-35 -286h-520z" />
<glyph unicode="." horiz-adv-x="628" d="M74 182q0 86 60 146.5t145 60.5q89 0 149.5 -61t60.5 -152q0 -83 -60.5 -143t-143.5 -60q-86 0 -148.5 62t-62.5 147z" />
<glyph unicode="/" horiz-adv-x="993" d="M-109 -313l945 1806h276l-944 -1806h-277z" />
<glyph unicode="0" d="M49 596q0 232 81.5 414.5t228.5 284.5t333 102q252 0 396.5 -166t144.5 -455q0 -148 -46 -301t-126 -270q-158 -236 -457 -236q-256 0 -405.5 169t-149.5 458zM397 598q0 -152 54.5 -240t148.5 -88q121 0 202 146t81 366q0 305 -185 314q-81 4 -150 -61.5t-110 -182 t-41 -254.5z" />
<glyph unicode="1" d="M342 1065l37 301h541l-168 -1366h-346l131 1065h-195z" />
<glyph unicode="2" d="M2 0q209 193 344.5 331.5t251.5 276.5q98 119 141 196.5t43 137.5q0 68 -43 111t-112 43q-103 0 -150 -90q-22 -43 -33 -166h-354q12 123 33.5 198t62.5 140q68 103 187.5 161t265.5 58q229 0 363.5 -120.5t134.5 -324.5q0 -169 -101 -306.5t-377 -344.5h422l-37 -301 h-1042z" />
<glyph unicode="3" d="M39 465h356q0 -106 46.5 -155.5t144.5 -49.5q86 0 137 46.5t51 123.5q0 72 -48 115t-128 43q-9 0 -45 -4l31 258q49 -6 65 -6q69 0 113.5 40.5t44.5 104.5q0 60 -40 97.5t-103 37.5q-68 0 -105 -36.5t-47 -114.5h-356q23 109 52 174.5t75 117.5q134 140 381 140 q226 0 355.5 -106.5t129.5 -291.5q0 -104 -41 -170.5t-137 -119.5q83 -46 120 -112.5t37 -170.5q0 -184 -137 -315q-151 -142 -407 -142q-164 0 -284.5 55.5t-188.5 161.5q-38 58 -54 121t-18 158z" />
<glyph unicode="4" d="M23 256l18 274l668 836h413l-102 -838h137l-35 -272h-135l-33 -256h-315l31 256h-647zM377 528h325l27 205q26 201 53 328q-55 -85 -123 -172z" />
<glyph unicode="5" d="M6 117l98 313q191 -162 406 -162q119 0 193.5 60t74.5 155q0 98 -76 150.5t-217 52.5q-80 0 -151 -14t-172 -51l241 745h738l-37 -301h-481l-56 -168q71 8 109 8q215 0 336 -108.5t121 -302.5q0 -216 -170 -369q-89 -81 -195 -118.5t-246 -37.5q-139 0 -242.5 30 t-273.5 118z" />
<glyph unicode="6" d="M63 434q0 118 59.5 233.5t207.5 282.5l366 416h408l-428 -479q60 8 92 8q189 0 306.5 -118.5t117.5 -307.5q0 -218 -163 -359t-415 -141q-238 0 -394.5 132t-156.5 333zM406 449q0 -85 61.5 -142t153.5 -57q94 0 155.5 59t61.5 148t-57.5 143.5t-151.5 54.5 q-97 0 -160 -58.5t-63 -147.5z" />
<glyph unicode="7" d="M156 0l417 752q105 186 189 313h-557l37 301h1048l-755 -1366h-379z" />
<glyph unicode="8" d="M78 375q0 178 129 282q33 26 71 43t111 39q-92 53 -134 119.5t-42 161.5q0 163 137 270t346 107q210 0 330.5 -96.5t120.5 -264.5q0 -116 -57.5 -183t-196.5 -114q65 -25 99.5 -44t64.5 -48q102 -94 102 -260q0 -189 -146.5 -303.5t-389.5 -114.5q-252 0 -398.5 109 t-146.5 297zM432 414q0 -67 53.5 -111.5t135.5 -44.5q78 0 131 46t53 114q0 66 -52 108.5t-135 42.5q-82 0 -134 -43.5t-52 -111.5zM535 1018q0 -57 41 -95t102 -38q63 0 105 40t42 97q0 63 -38 100t-103 37q-64 0 -106.5 -40.5t-42.5 -100.5z" />
<glyph unicode="9" d="M92 905q0 143 74.5 255t207.5 174.5t302 62.5q241 0 393 -129.5t152 -335.5q0 -216 -209 -453l-424 -479h-408l430 479q-49 -10 -80 -10q-187 0 -312.5 125t-125.5 311zM446 905q0 -82 61 -138t150 -56q94 0 158 60.5t64 150.5q0 84 -58.5 139t-148.5 55 q-95 0 -160.5 -61t-65.5 -150z" />
<glyph unicode=":" horiz-adv-x="628" d="M72 184q0 85 59.5 145t144.5 60q89 0 150 -61t61 -152q0 -83 -60.5 -143t-143.5 -60q-86 0 -148.5 62.5t-62.5 148.5zM139 737q0 85 60 145t145 60q89 0 150 -61t61 -152q0 -83 -61 -143t-144 -60q-86 0 -148.5 62.5t-62.5 148.5z" />
<glyph unicode=";" horiz-adv-x="628" d="M-72 -305l310 647h313l-373 -647h-250zM176 735q0 86 60 146.5t145 60.5q89 0 150 -61t61 -152q0 -83 -61 -143t-144 -60q-86 0 -148.5 62t-62.5 147z" />
<glyph unicode="&#x3c;" horiz-adv-x="1024" d="M92 532v324l887 492v-387l-477 -269l475 -270l2 -383z" />
<glyph unicode="=" d="M131 387v242h1024v-242h-1024zM131 764v242h1024v-242h-1024z" />
<glyph unicode="&#x3e;" horiz-adv-x="1024" d="M92 39v387l477 268l-475 271l-2 383l887 -494v-324z" />
<glyph unicode="?" horiz-adv-x="1122" d="M158 967q15 109 38 170.5t68 113.5q130 142 363 142q214 0 340.5 -113.5t126.5 -304.5q0 -173 -101.5 -289t-273.5 -139l-12 -96h-318l43 350q51 -4 94 -4q116 0 184 47.5t68 128.5q0 63 -39.5 102t-105.5 39q-72 0 -109.5 -35.5t-44.5 -111.5h-321zM287 184 q0 88 59.5 145.5t151.5 57.5q89 0 145.5 -57t56.5 -146q0 -91 -59 -151t-147 -60q-89 0 -148 60t-59 151z" />
<glyph unicode="@" horiz-adv-x="1501" d="M59 680q0 151 58.5 286t158.5 231.5t239.5 153t295.5 56.5q192 0 351.5 -83.5t251 -228.5t91.5 -319q0 -132 -53.5 -245.5t-144.5 -180.5t-197 -67q-100 0 -156 88q-63 -54 -107.5 -73t-107.5 -19q-141 0 -235 106.5t-94 267.5q0 169 104 280t262 111q55 0 94 -12t95 -47 l12 43h188l-55 -450q-4 -27 -4 -89q0 -20 4.5 -27t17.5 -7q75 0 138 98.5t63 218.5q0 201 -147.5 335t-368.5 134q-155 0 -283.5 -73.5t-202 -202.5t-73.5 -285q0 -116 41 -217.5t114.5 -176.5t181.5 -118t236 -43q115 0 207.5 26t222.5 91l66 -166q-137 -69 -247.5 -97 t-246.5 -28q-240 0 -411 98q-166 95 -262.5 264t-96.5 367zM616 647q0 -77 38 -126.5t96 -49.5q76 0 135 67.5t59 155.5q0 68 -45.5 113t-114.5 45q-73 0 -120.5 -58t-47.5 -147z" />
<glyph unicode="A" horiz-adv-x="1423" d="M-31 0l676 1366h389l332 -1366h-362l-62 250h-475l-115 -250h-383zM594 522h280l-53 238q-23 98 -37 207q-43 -124 -61 -162z" />
<glyph unicode="B" horiz-adv-x="1226" d="M86 0l168 1366h436q200 0 277 -39q73 -35 114 -108t41 -168q0 -123 -61 -215q-28 -42 -63 -69t-99 -56q132 -31 193 -102t61 -197q0 -108 -52 -198.5t-147 -147.5q-60 -37 -131.5 -51.5t-193.5 -14.5h-543zM465 272h94q79 0 116 8t66 33q58 45 58 129q0 38 -14.5 67.5 t-39.5 43.5q-35 18 -139 18h-104zM532 819h50q112 0 162.5 36t50.5 116q0 36 -14.5 65t-37.5 41q-33 17 -114 17h-64z" />
<glyph unicode="C" horiz-adv-x="1243" d="M102 653q0 333 238 545q104 93 237 144t271 51q209 0 414 -113l-41 -340q-149 125 -334 125q-188 0 -309 -112t-121 -285q0 -163 106.5 -265t276.5 -102q158 0 313 86l-43 -348q-114 -39 -179.5 -52.5t-142.5 -13.5q-302 0 -494 190.5t-192 489.5z" />
<glyph unicode="D" horiz-adv-x="1406" d="M86 0l168 1366h422q168 0 273 -26.5t184 -86.5q107 -83 167 -220t60 -300q0 -211 -93 -387t-247 -258q-91 -47 -201.5 -67.5t-281.5 -20.5h-451zM469 301h119q112 0 176.5 20.5t118.5 73.5q121 121 121 338q0 173 -84 260q-72 72 -232 72h-125z" />
<glyph unicode="E" horiz-adv-x="989" d="M86 0l168 1366h747l-36 -301h-402l-28 -236h389l-37 -301h-389l-29 -227h418l-37 -301h-764z" />
<glyph unicode="F" horiz-adv-x="970" d="M86 0l168 1366h778l-37 -301h-432l-28 -231h393l-37 -302h-393l-66 -532h-346z" />
<glyph unicode="G" horiz-adv-x="1540" d="M102 647q0 159 56.5 297.5t155 237t237 155t297.5 56.5q261 0 438 -148q61 -51 98 -105t76 -147l-299 -116q-101 223 -319 223q-81 0 -153.5 -33t-119.5 -92q-52 -62 -82 -149t-30 -173q0 -166 101 -272.5t259 -106.5q112 0 192.5 58t102.5 155h-315l32 273h656 q-3 -211 -66 -377q-74 -191 -244 -300.5t-393 -109.5q-198 0 -353 85t-241 239t-86 350z" />
<glyph unicode="H" horiz-adv-x="1482" d="M86 0l168 1366h346l-61 -498h505l60 498h346l-168 -1366h-346l72 567h-506l-70 -567h-346z" />
<glyph unicode="I" horiz-adv-x="632" d="M86 0l168 1366h346l-168 -1366h-346z" />
<glyph unicode="J" horiz-adv-x="1003" d="M-14 289l274 143q17 -69 46.5 -100t80.5 -31q64 0 96 49q21 33 33 133l109 883h346l-115 -940q-15 -125 -39.5 -196t-71.5 -126q-110 -131 -333 -131q-202 0 -316 111q-37 37 -60 80.5t-50 124.5z" />
<glyph unicode="K" horiz-adv-x="1376" d="M86 0l168 1366h346l-74 -598l451 598h397l-522 -694l467 -672h-416l-293 436q-60 90 -102 180l-76 -616h-346z" />
<glyph unicode="L" horiz-adv-x="966" d="M86 0l168 1366h346l-131 -1065h436l-39 -301h-780z" />
<glyph unicode="M" horiz-adv-x="1923" d="M45 0l432 1366h342l103 -461q38 -167 61 -358q31 94 78 186l321 633h359l43 -1366h-346l-17 612v45q0 89 17 228q-42 -116 -97 -226l-335 -659h-183l-116 528q-39 177 -58 377q-43 -218 -71 -313l-177 -592h-356z" />
<glyph unicode="N" horiz-adv-x="1634" d="M86 0l168 1366h373l389 -659q36 -63 59 -109q66 -131 80 -158q0 95 16 236l84 690h347l-168 -1366h-379l-363 612q-99 167 -168 338v-61q0 -135 -14 -258l-78 -631h-346z" />
<glyph unicode="O" horiz-adv-x="1648" d="M106 666q0 158 57.5 293.5t159 231t245 150t311.5 54.5q212 0 374 -84.5t251 -238.5t89 -355q0 -123 -39 -247.5t-108 -219.5q-99 -135 -250 -206t-344 -71q-220 0 -389.5 87t-263 244.5t-93.5 361.5zM461 678q0 -169 105.5 -273t277.5 -104t283.5 107.5t111.5 273.5 q0 173 -103 279t-272 106q-175 0 -289 -110t-114 -279z" />
<glyph unicode="P" horiz-adv-x="1226" d="M86 0l168 1366h461q142 0 216.5 -15t133.5 -55q75 -51 117.5 -145.5t42.5 -210.5q0 -106 -35 -202t-98 -160q-69 -72 -169 -103t-268 -31h-168l-55 -444h-346zM524 745h109q117 0 177 48t60 141q0 85 -49 122.5t-159 37.5h-97z" />
<glyph unicode="Q" horiz-adv-x="1648" d="M106 666q0 211 98.5 377.5t275 259t401.5 92.5q318 0 515 -186.5t197 -485.5q0 -343 -225 -561l160 -211l-303 -62l-95 127q-130 -43 -282 -43q-162 0 -300.5 51t-235.5 141.5t-151.5 219.5t-54.5 281zM461 678q0 -169 105.5 -273t277.5 -104q24 0 80 6l-201 260l303 51 l127 -182q86 108 86 250q0 171 -103.5 276t-271.5 105q-175 0 -289 -110t-114 -279z" />
<glyph unicode="R" horiz-adv-x="1286" d="M86 0l168 1366h444q212 0 324 -72q76 -49 118 -141t42 -211q0 -186 -111 -303q-35 -38 -73 -61t-107 -48l336 -530h-402l-327 543l-66 -543h-346zM522 741h62q124 0 183.5 47.5t59.5 145.5q0 89 -43.5 124.5t-152.5 35.5h-66z" />
<glyph unicode="S" horiz-adv-x="1083" d="M33 123l155 262q93 -62 156.5 -86.5t132.5 -24.5q82 0 132 38t50 100q0 46 -32 77t-127 78q-183 92 -249.5 175.5t-66.5 220.5q0 186 142.5 308t359.5 122q201 0 397 -125l-151 -262q-132 100 -240 100q-70 0 -111.5 -32.5t-41.5 -86.5q0 -49 34.5 -81.5t139.5 -82.5 q169 -78 236 -163t67 -220q0 -196 -144 -331q-142 -136 -378 -136q-123 0 -223 32.5t-238 117.5z" />
<glyph unicode="T" horiz-adv-x="952" d="M88 1065l37 301h926l-37 -301h-287l-131 -1065h-346l131 1065h-293z" />
<glyph unicode="U" horiz-adv-x="1468" d="M147 438q0 74 15 191l92 737h344l-90 -737q-8 -82 -8 -115q0 -215 227 -215q128 0 195 70q31 34 47 81t26 138l95 778h346l-97 -791q-23 -192 -56.5 -288.5t-98.5 -161.5q-74 -74 -195.5 -114t-271.5 -40q-257 0 -398 107q-80 60 -126 156.5t-46 203.5z" />
<glyph unicode="V" horiz-adv-x="1382" d="M111 1366h368l158 -623q28 -112 41 -249q31 93 78 186l350 686h387l-733 -1366h-291z" />
<glyph unicode="W" horiz-adv-x="2060" d="M111 1366h348l86 -512q21 -124 30.5 -209t18.5 -239q9 33 16 56t11 37.5t11.5 35t10 28.5t14 38.5t17.5 45.5l291 719h325l103 -586q20 -126 37 -374q11 36 18.5 61.5t13 42t15 42.5t14 37t21.5 54.5t26 67.5l260 655h373l-588 -1366h-389l-92 545q-28 171 -31 354 q-49 -169 -113 -326l-233 -573h-371z" />
<glyph unicode="X" horiz-adv-x="1406" d="M-59 0l596 719l-392 647h402l90 -160q74 -132 125 -252q104 157 137 199l168 213h418l-541 -666l424 -700h-399l-123 205q-75 130 -127 258q-58 -101 -135 -197l-213 -266h-430z" />
<glyph unicode="Y" horiz-adv-x="1275" d="M96 1366h383l94 -219q65 -151 89 -229q26 47 67 108l234 340h421l-596 -768l-73 -598h-346l75 608z" />
<glyph unicode="Z" horiz-adv-x="1292" d="M4 0l741 1065h-538l37 301h1097l-731 -1065h613l-37 -301h-1182z" />
<glyph unicode="[" horiz-adv-x="776" d="M68 -313l221 1806h530l-22 -190h-246l-176 -1426h246l-23 -190h-530z" />
<glyph unicode="\" horiz-adv-x="993" d="M135 1493h277l499 -1806h-276z" />
<glyph unicode="]" horiz-adv-x="776" d="M-14 -313l22 190h246l176 1426h-246l23 190h530l-221 -1806h-530z" />
<glyph unicode="^" horiz-adv-x="1024" d="M37 690l285 686h428l286 -686h-338l-161 424l-162 -424h-338z" />
<glyph unicode="_" horiz-adv-x="1024" d="M25 -100h1024v-226h-1024v226z" />
<glyph unicode="`" horiz-adv-x="1024" d="M295 1352l219 127l197 -320l-172 -94z" />
<glyph unicode="a" horiz-adv-x="1253" d="M68 408q0 232 137 384t346 152q94 0 157.5 -29t137.5 -104l2 104h338l-113 -915h-338l25 100q-78 -70 -147.5 -98.5t-163.5 -28.5q-173 0 -277 118.5t-104 316.5zM412 432q0 -88 49.5 -140t134.5 -52q91 0 152 69.5t61 173.5q0 91 -47.5 143t-132.5 52q-92 0 -154.5 -71 t-62.5 -175z" />
<glyph unicode="b" horiz-adv-x="1263" d="M66 0l184 1493h338l-86 -690q84 75 155 107t158 32q169 0 274 -121.5t105 -316.5q0 -233 -132.5 -383t-338.5 -150q-103 0 -172.5 33t-142.5 119l-5 -123h-337zM453 430q0 -88 49.5 -140t134.5 -52q91 0 152 69.5t61 173.5q0 91 -47.5 143t-132.5 52q-92 0 -154.5 -71 t-62.5 -175z" />
<glyph unicode="c" horiz-adv-x="866" d="M72 430q0 222 143.5 367t362.5 145q147 0 276 -63l-35 -285q-47 44 -89.5 63t-96.5 19q-94 0 -155.5 -68.5t-61.5 -171.5q0 -91 51 -143.5t137 -52.5q47 0 86.5 15t93.5 54l-34 -286q-87 -29 -136 -39.5t-104 -10.5q-192 0 -315 128.5t-123 328.5z" />
<glyph unicode="d" horiz-adv-x="1253" d="M66 389q0 153 61 280t168 200t237 73q94 0 163 -33t139 -112l84 696h337l-184 -1493h-336l25 109q-80 -73 -154.5 -104.5t-167.5 -31.5q-167 0 -269.5 115t-102.5 301zM410 430q0 -87 50 -138.5t134 -51.5q91 0 152 69.5t61 173.5q0 90 -48 141.5t-132 51.5 q-92 0 -154.5 -71t-62.5 -175z" />
<glyph unicode="e" horiz-adv-x="1148" d="M70 420q0 104 38 202.5t105 168.5q145 151 397 151q220 0 344.5 -124.5t124.5 -344.5q0 -10 -4 -84h-684q0 -53 7 -81t26 -50q44 -47 127 -47q111 0 129 94h369q-29 -76 -57 -121.5t-70 -85.5q-137 -125 -377 -125q-217 0 -336 107q-65 57 -102 148t-37 192zM414 580h319 q-4 69 -42.5 105t-106.5 36q-140 0 -170 -141z" />
<glyph unicode="f" horiz-adv-x="735" d="M43 655l33 260h141l27 220q15 124 61 204t129 127q93 52 205 52q105 0 213 -43l-35 -289q-56 45 -112 45q-59 0 -91 -36.5t-41 -117.5l-18 -162h229l-32 -260h-230l-82 -655h-336l80 655h-141z" />
<glyph unicode="g" horiz-adv-x="1251" d="M23 -129h321q9 -60 53.5 -92.5t118.5 -32.5q94 0 148 51q47 44 61 158l18 141q-74 -69 -132.5 -96t-137.5 -27q-86 0 -165.5 33.5t-131.5 91.5q-106 115 -106 330q0 226 129 370t331 144q99 0 170.5 -36t141.5 -122l6 131h336l-103 -847q-36 -289 -110 -398 q-64 -98 -176 -144t-283 -46q-245 0 -369 112q-54 46 -80 107.5t-40 171.5zM414 442q0 -92 50.5 -147t133.5 -55q88 0 142.5 66.5t54.5 172.5q0 92 -48 144.5t-133 52.5q-88 0 -144 -65.5t-56 -168.5z" />
<glyph unicode="h" horiz-adv-x="1214" d="M66 0l184 1493h338l-82 -659q85 60 152 84t149 24q143 0 220 -83t77 -238q0 -44 -12 -154l-58 -467h-338l45 367q15 135 15 149q0 75 -30 110.5t-93 35.5q-94 0 -137 -74q-26 -48 -39 -154l-54 -434h-337z" />
<glyph unicode="i" horiz-adv-x="583" d="M66 0l112 915h338l-113 -915h-337zM190 1262q0 82 60 140t145 58q82 0 139.5 -57.5t57.5 -140.5q0 -85 -58 -144t-141 -59q-85 0 -144 59t-59 144z" />
<glyph unicode="j" horiz-adv-x="583" d="M4 -506l174 1421h338l-174 -1421h-338zM182 1262q0 82 60 140t145 58q82 0 139.5 -57.5t57.5 -140.5q0 -85 -58 -144t-141 -59q-85 0 -144 59t-59 144z" />
<glyph unicode="k" horiz-adv-x="1239" d="M66 0l184 1493h338l-113 -905l293 327h426l-399 -417l428 -498h-412l-135 154q-109 122 -219 276l-54 -430h-337z" />
<glyph unicode="l" horiz-adv-x="583" d="M66 0l184 1493h338l-185 -1493h-337z" />
<glyph unicode="m" horiz-adv-x="1804" d="M66 0l112 915h338l-27 -120q75 81 146 114t170 33q102 0 162 -35.5t104 -122.5q84 86 162.5 122t177.5 36q132 0 210.5 -72.5t78.5 -193.5q0 -65 -17 -195l-61 -481h-336l55 446q9 88 9 97q0 57 -29.5 88t-83.5 31q-44 0 -81.5 -22t-59.5 -60q-22 -42 -33 -144l-53 -436 h-338l59 477q6 53 6 78q0 50 -29 78.5t-81 28.5q-74 0 -115.5 -54.5t-54.5 -171.5l-54 -436h-337z" />
<glyph unicode="n" horiz-adv-x="1214" d="M66 0l112 915h338l-29 -118q93 83 165 114t167 31q139 0 214 -72t75 -206q0 -66 -10 -148l-64 -516h-338l52 403q8 73 8 113q0 69 -32.5 107.5t-90.5 38.5q-37 0 -71 -16t-54 -44q-37 -51 -53 -188l-52 -414h-337z" />
<glyph unicode="o" horiz-adv-x="1234" d="M72 455q0 214 156.5 350.5t400.5 136.5t387 -128.5t143 -346.5q0 -89 -34 -176t-95 -154q-148 -164 -414 -164q-243 0 -393.5 133.5t-150.5 348.5zM416 430q0 -86 50.5 -138t133.5 -52q92 0 153.5 69.5t61.5 173.5q0 90 -48 141.5t-132 51.5q-94 0 -156.5 -71t-62.5 -175 z" />
<glyph unicode="p" horiz-adv-x="1263" d="M4 -506l174 1421h338l-24 -114q90 78 160 109.5t159 31.5q173 0 275 -119t102 -321q0 -238 -120 -383.5t-316 -145.5q-103 0 -183 44t-147 139l-80 -662h-338zM446 430q0 -86 50 -138t135 -52q91 0 152 69.5t61 173.5q0 90 -48 141.5t-132 51.5q-92 0 -155 -71t-63 -175z " />
<glyph unicode="q" horiz-adv-x="1255" d="M72 418q0 235 128 379.5t337 144.5q96 0 165.5 -28t147.5 -99v100h338l-174 -1421h-338l74 590q-75 -63 -137 -88t-144 -25q-180 0 -288.5 123t-108.5 324zM416 430q0 -88 49 -140t131 -52q91 0 151 69.5t60 173.5q0 91 -47 143t-129 52q-92 0 -153.5 -70.5t-61.5 -175.5 z" />
<glyph unicode="r" horiz-adv-x="833" d="M66 0l112 915h338l-27 -124q77 71 142.5 97.5t163.5 26.5q36 0 65 -2l-37 -313q-75 41 -153 41q-116 0 -170 -78q-19 -28 -29.5 -65.5t-19.5 -108.5l-48 -389h-337z" />
<glyph unicode="s" horiz-adv-x="962" d="M39 113l123 223q97 -63 157.5 -86t129.5 -23q57 0 89.5 17.5t32.5 46.5q0 19 -12 31q-10 9 -29 14.5t-120 30.5q-128 31 -186 94t-58 172q0 141 107 227t284 86q164 0 342 -94l-82 -231q-70 44 -119.5 61.5t-103.5 17.5q-115 0 -115 -55q0 -25 20.5 -34.5t143.5 -41.5 q125 -34 183.5 -95.5t58.5 -160.5q0 -155 -115.5 -247.5t-310.5 -92.5q-113 0 -208 32t-212 108z" />
<glyph unicode="t" horiz-adv-x="681" d="M43 655l33 260h143l37 293h336l-35 -293h180l-32 -260h-181l-80 -655h-338l82 655h-145z" />
<glyph unicode="u" horiz-adv-x="1222" d="M113 332q0 64 8 127l57 456h338l-55 -436q-8 -57 -8 -106q0 -119 137 -119q78 0 117 42.5t51 141.5l59 477h338l-59 -483q-17 -139 -49 -218.5t-89 -129.5q-60 -53 -161.5 -82t-227.5 -29q-218 0 -337 94t-119 265z" />
<glyph unicode="v" horiz-adv-x="1193" d="M45 915h352l103 -278q28 -78 67 -227q74 148 133 237l174 268h375l-616 -915h-230z" />
<glyph unicode="w" horiz-adv-x="1705" d="M45 915h342l92 -284q33 -104 53 -211q34 91 91 196l159 299h228l86 -276q36 -114 51 -199q42 105 74 160l180 315h360l-528 -915h-242l-90 328q-29 107 -39 204q-44 -113 -86 -188l-186 -344h-246z" />
<glyph unicode="x" horiz-adv-x="1280" d="M-43 0l471 483l-332 432h422l68 -106q45 -70 73 -129q31 51 43.5 67t53.5 62l94 106h440l-436 -440l367 -475h-418l-88 123q-47 65 -90 141q-53 -69 -129 -151l-107 -113h-432z" />
<glyph unicode="y" horiz-adv-x="1230" d="M25 -506l354 578l-324 843h375l98 -247q49 -120 76 -262q44 98 119 221l178 288h385l-883 -1421h-378z" />
<glyph unicode="z" horiz-adv-x="1144" d="M-16 0l565 655h-399l43 260h966l-559 -655h442l-43 -260h-1015z" />
<glyph unicode="{" horiz-adv-x="784" d="M168 489l27 224q65 12 94.5 45.5t38.5 109.5l43 342q20 162 90 229.5t219 67.5q6 0 82 -4q36 0 67 -2l-28 -231q-14 2 -35 2q-86 0 -108.5 -23t-34.5 -121l-35 -278q-13 -107 -45.5 -160t-108.5 -98q54 -40 74 -80t20 -109q0 -21 -4 -71l-35 -279q-6 -51 -6 -76 q0 -41 28 -53t124 -12l-29 -231q-23 -1 -63.5 -3t-69.5 -2h-22q-126 0 -182 51.5t-56 166.5q0 31 4 77l43 342q4 29 4 60q0 99 -96 116z" />
<glyph unicode="|" horiz-adv-x="1024" d="M342 -342v1708h391v-1708h-391z" />
<glyph unicode="}" horiz-adv-x="784" d="M-14 -319l28 231h37q85 0 109.5 23t34.5 118l32 281q12 105 45.5 159t110.5 99q-56 38 -76 78t-20 110q0 20 4 70l35 278q6 53 6 78q0 37 -25 51.5t-88 14.5q-23 0 -39 -2l29 231q35 2 67 2l89 4q127 0 183 -50.5t56 -166.5q0 -24 -6 -80l-41 -342q-4 -28 -4 -59 q0 -51 22.5 -79t71.5 -38l-26 -221q-66 -14 -95.5 -46.5t-38.5 -111.5l-41 -342q-19 -160 -90 -227.5t-219 -67.5q-8 0 -84 2z" />
<glyph unicode="~" horiz-adv-x="1366" d="M209 1243q13 31 16 35l25 57q40 93 109 143t159 50q69 0 213 -55q94 -35 120.5 -42.5t57.5 -7.5q49 0 80 22.5t68 84.5l149 -86q-46 -95 -77 -139.5t-74 -75.5q-83 -58 -174 -58q-31 0 -72.5 11.5t-136.5 46.5q-82 30 -112.5 38.5t-55.5 8.5q-54 0 -92 -35 q-21 -18 -58 -92z" />
<glyph unicode="&#xa2;" d="M229 666q0 198 111 336.5t299 175.5l29 241h209l-31 -239q97 -15 178 -58l-35 -288q-50 38 -93 54.5t-95 16.5q-97 0 -159 -65t-62 -166q0 -84 51.5 -136.5t134.5 -52.5q90 0 188 60l-36 -289q-105 -42 -205 -49l-29 -234h-207l31 260q-132 56 -205.5 169.5t-73.5 263.5z " />
<glyph unicode="&#xa3;" d="M25 0q44 170 104 247.5t166 102.5q33 90 33 160q0 16 -6 63h-216l27 207h164q-25 111 -25 187q0 187 109 293q67 66 167.5 101.5t219.5 35.5q137 0 235.5 -46t149.5 -134q30 -52 41.5 -102t11.5 -132v-18h-319q-4 89 -35.5 131.5t-93.5 42.5q-75 0 -115.5 -54.5 t-40.5 -156.5q0 -56 14 -148h377l-24 -207h-332q-6 -133 -59 -247q33 -11 36 -11l50 -20q87 -37 133 -37q65 0 82 86h251q-8 -88 -20 -135t-41 -96q-40 -69 -110 -106.5t-160 -37.5q-64 0 -108 12.5t-195 71.5q-81 31 -129 31q-35 0 -56.5 -19t-36.5 -65h-249z" />
<glyph unicode="&#xa5;" d="M115 334l24 201h285l8 73l-26 66h-250l24 200h146l-197 492h344l172 -467l295 467h379l-348 -492h151l-24 -200h-271l-55 -76l-8 -63h315l-24 -201h-316l-41 -334h-342l43 334h-284z" />
<glyph unicode="&#xa8;" horiz-adv-x="1024" d="M250 1266q0 65 46 110t112 45t111.5 -46.5t45.5 -112.5q0 -65 -45.5 -110.5t-109.5 -45.5q-66 0 -113 46.5t-47 113.5zM647 1266q0 64 47 109.5t113 45.5q63 0 109.5 -47.5t46.5 -113.5q0 -62 -46.5 -108t-107.5 -46q-66 0 -114 47t-48 113z" />
<glyph unicode="&#xa9;" horiz-adv-x="1501" d="M68 682q0 147 56.5 279.5t152 228t229 151.5t282.5 56q112 0 218.5 -36.5t192.5 -103t151.5 -154.5t101 -197t35.5 -224q0 -116 -36 -224.5t-101.5 -196.5t-152.5 -154t-195.5 -102t-223.5 -36q-144 0 -275.5 57t-226.5 152.5t-151.5 227.5t-56.5 276zM209 682 q0 -158 76.5 -293t207.5 -214t285 -79q153 0 283 78.5t206 213.5t76 294q0 157 -75.5 292t-204 214.5t-277.5 79.5q-159 0 -292 -77.5t-209 -212t-76 -296.5zM365 668q0 184 137.5 312t335.5 128q130 0 270 -70l-29 -231q-62 48 -109 66t-110 18q-109 0 -178.5 -59.5 t-69.5 -153.5q0 -91 63.5 -147t164.5 -56q54 0 98 12.5t109 47.5l-29 -236q-76 -25 -119 -33t-94 -8q-193 0 -316.5 115t-123.5 295z" />
<glyph unicode="&#xab;" horiz-adv-x="1058" d="M78 539l377 364l127 -131l-256 -250l215 -329l-166 -113zM479 539l377 364l127 -131l-256 -250l215 -329l-166 -113z" />
<glyph unicode="&#xad;" horiz-adv-x="520" d="M-16 328l34 286h521l-35 -286h-520z" />
<glyph unicode="&#xae;" horiz-adv-x="1501" d="M68 682q0 147 56.5 279.5t152 228t229 151.5t282.5 56q112 0 218.5 -36.5t192.5 -103t151.5 -154.5t101 -197t35.5 -224q0 -116 -36 -224.5t-101.5 -196.5t-152.5 -154t-195.5 -102t-223.5 -36q-144 0 -275.5 57t-226.5 152.5t-151.5 227.5t-56.5 276zM209 682 q0 -158 76.5 -293t207.5 -214t285 -79q153 0 283 78.5t206 213.5t76 294q0 157 -75.5 292t-204 214.5t-277.5 79.5q-159 0 -292 -77.5t-209 -212t-76 -296.5zM408 272l100 820h289q158 0 235.5 -64t77.5 -194q0 -183 -170 -246l217 -316h-285l-188 289l-35 -289h-241z M705 731h24q69 0 101 22.5t32 71.5q0 46 -23.5 64t-84.5 18h-27z" />
<glyph unicode="&#xb4;" horiz-adv-x="1024" d="M485 1198l285 281l166 -183l-320 -231z" />
<glyph unicode="&#xb8;" horiz-adv-x="1024" d="M229 -358l224 262l176 -150l-262 -233z" />
<glyph unicode="&#xbb;" horiz-adv-x="1058" d="M84 238l256 249l-215 332l166 113l297 -461l-377 -365zM485 238l258 249l-217 332l166 113l297 -461l-377 -365z" />
<glyph unicode="&#xc4;" horiz-adv-x="1423" d="M-31 0l676 1366h389l332 -1366h-362l-62 250h-475l-115 -250h-383zM508 1675q0 68 48.5 116t117.5 48t116.5 -48.5t47.5 -119.5q0 -66 -48.5 -114t-115.5 -48q-69 0 -117.5 48.5t-48.5 117.5zM594 522h280l-53 238q-23 98 -37 207q-43 -124 -61 -162zM922 1675 q0 68 48 116t117 48q67 0 115.5 -49.5t48.5 -118.5q0 -66 -47.5 -114t-113.5 -48q-69 0 -118.5 49t-49.5 117z" />
<glyph unicode="&#xd6;" horiz-adv-x="1648" d="M106 666q0 158 57.5 293.5t159 231t245 150t311.5 54.5q212 0 374 -84.5t251 -238.5t89 -355q0 -123 -39 -247.5t-108 -219.5q-99 -135 -250 -206t-344 -71q-220 0 -389.5 87t-263 244.5t-93.5 361.5zM461 678q0 -169 105.5 -273t277.5 -104t283.5 107.5t111.5 273.5 q0 173 -103 279t-272 106q-175 0 -289 -110t-114 -279zM604 1675q0 68 48.5 116t117.5 48t116.5 -48.5t47.5 -119.5q0 -66 -48.5 -114t-115.5 -48q-69 0 -117.5 48.5t-48.5 117.5zM1018 1675q0 68 48.5 116t117.5 48q67 0 115.5 -49.5t48.5 -118.5q0 -66 -48 -114t-114 -48 q-69 0 -118.5 49t-49.5 117z" />
<glyph unicode="&#xdc;" horiz-adv-x="1468" d="M147 438q0 74 15 191l92 737h344l-90 -737q-8 -82 -8 -115q0 -215 227 -215q128 0 195 70q31 34 47 81t26 138l95 778h346l-97 -791q-23 -192 -56.5 -288.5t-98.5 -161.5q-74 -74 -195.5 -114t-271.5 -40q-257 0 -398 107q-80 60 -126 156.5t-46 203.5zM522 1675 q0 68 48.5 116t117.5 48t116.5 -48.5t47.5 -119.5q0 -66 -48.5 -114t-115.5 -48q-69 0 -117.5 48.5t-48.5 117.5zM936 1675q0 68 48.5 116t117.5 48q67 0 115.5 -49.5t48.5 -118.5q0 -66 -48 -114t-114 -48q-69 0 -118.5 49t-49.5 117z" />
<glyph unicode="&#xdf;" horiz-adv-x="1245" d="M66 0l124 1006q19 143 42 217t67 131q123 164 375 164q215 0 344 -110t129 -294q0 -132 -78 -229q-32 -40 -66.5 -63t-97.5 -46q107 -41 150 -80q108 -94 108 -276q0 -121 -53.5 -216t-151.5 -149q-60 -34 -131.5 -44.5t-238.5 -10.5h-88l37 291q41 -4 75 -4 q98 0 152.5 47t54.5 133q0 82 -44.5 124t-129.5 42q-5 0 -67 -4l36 305q36 -4 50 -4q74 0 119.5 44t45.5 116q0 66 -39.5 106.5t-103.5 40.5q-69 0 -104 -41.5t-47 -136.5l-132 -1059h-337z" />
<glyph unicode="&#xe4;" horiz-adv-x="1253" d="M68 408q0 232 137 384t346 152q94 0 157.5 -29t137.5 -104l2 104h338l-113 -915h-338l25 100q-78 -70 -147.5 -98.5t-163.5 -28.5q-173 0 -277 118.5t-104 316.5zM379 1266q0 65 46 110t112 45t111.5 -46.5t45.5 -112.5q0 -65 -45.5 -110.5t-109.5 -45.5q-66 0 -113 46.5 t-47 113.5zM412 432q0 -88 49.5 -140t134.5 -52q91 0 152 69.5t61 173.5q0 91 -47.5 143t-132.5 52q-92 0 -154.5 -71t-62.5 -175zM776 1266q0 64 47 109.5t113 45.5q63 0 109.5 -47.5t46.5 -113.5q0 -62 -46 -108t-108 -46q-66 0 -114 47t-48 113z" />
<glyph unicode="&#xf6;" horiz-adv-x="1234" d="M72 455q0 214 156.5 350.5t400.5 136.5t387 -128.5t143 -346.5q0 -89 -34 -176t-95 -154q-148 -164 -414 -164q-243 0 -393.5 133.5t-150.5 348.5zM369 1266q0 65 45.5 110t111.5 45t112 -46.5t46 -112.5q0 -64 -46 -110t-110 -46q-66 0 -112.5 46.5t-46.5 113.5z M416 430q0 -86 50.5 -138t133.5 -52q92 0 153.5 69.5t61.5 173.5q0 90 -48 141.5t-132 51.5q-94 0 -156.5 -71t-62.5 -175zM766 1266q0 64 47 109.5t113 45.5q63 0 109 -47.5t46 -113.5q0 -62 -46 -108t-107 -46q-66 0 -114 47t-48 113z" />
<glyph unicode="&#xfc;" horiz-adv-x="1222" d="M113 332q0 64 8 127l57 456h338l-55 -436q-8 -57 -8 -106q0 -119 137 -119q78 0 117 42.5t51 141.5l59 477h338l-59 -483q-17 -139 -49 -218.5t-89 -129.5q-60 -53 -161.5 -82t-227.5 -29q-218 0 -337 94t-119 265zM367 1266q0 65 45.5 110t111.5 45t112 -46.5t46 -112.5 q0 -64 -46 -110t-110 -46q-66 0 -112.5 46.5t-46.5 113.5zM764 1266q0 64 47 109.5t113 45.5q63 0 109 -47.5t46 -113.5q0 -62 -46 -108t-107 -46q-66 0 -114 47t-48 113z" />
<glyph unicode="&#x2c6;" horiz-adv-x="1024" d="M231 1237l398 242l315 -250l-135 -164l-207 164l-258 -164z" />
<glyph unicode="&#x2da;" horiz-adv-x="1024" d="M334 1270q0 94 76 149.5t204 55.5q126 0 200.5 -56t74.5 -153q0 -95 -74.5 -151t-200.5 -56q-132 0 -206 55.5t-74 155.5zM506 1268q0 -36 28.5 -57t77.5 -21q48 0 76.5 21t28.5 57t-28 57t-77 21q-47 0 -76.5 -21.5t-29.5 -56.5z" />
<glyph unicode="&#x2dc;" horiz-adv-x="1024" d="M236 1108q23 130 63 197q63 108 168 108q53 0 129 -43q62 -32 80.5 -39.5t38.5 -7.5q53 0 71 96h195q-12 -78 -27 -123t-43 -88q-66 -102 -159 -102q-37 0 -70 12.5t-131 63.5q-25 14 -55 14q-49 0 -66 -88h-194z" />
<glyph unicode="&#x2000;" horiz-adv-x="919" />
<glyph unicode="&#x2001;" horiz-adv-x="1839" />
<glyph unicode="&#x2002;" horiz-adv-x="919" />
<glyph unicode="&#x2003;" horiz-adv-x="1839" />
<glyph unicode="&#x2004;" horiz-adv-x="613" />
<glyph unicode="&#x2005;" horiz-adv-x="459" />
<glyph unicode="&#x2006;" horiz-adv-x="306" />
<glyph unicode="&#x2007;" horiz-adv-x="306" />
<glyph unicode="&#x2008;" horiz-adv-x="229" />
<glyph unicode="&#x2009;" horiz-adv-x="367" />
<glyph unicode="&#x200a;" horiz-adv-x="102" />
<glyph unicode="&#x2010;" horiz-adv-x="520" d="M-16 328l34 286h521l-35 -286h-520z" />
<glyph unicode="&#x2011;" horiz-adv-x="520" d="M-16 328l34 286h521l-35 -286h-520z" />
<glyph unicode="&#x2012;" horiz-adv-x="520" d="M-16 328l34 286h521l-35 -286h-520z" />
<glyph unicode="&#x2013;" d="M113 328l34 286h969l-35 -286h-968z" />
<glyph unicode="&#x2014;" horiz-adv-x="1558" d="M-16 328l34 286h1559l-35 -286h-1558z" />
<glyph unicode="&#x2018;" horiz-adv-x="638" d="M125 811l336 582h223l-276 -582h-283z" />
<glyph unicode="&#x2019;" horiz-adv-x="638" d="M125 811l278 582h281l-334 -582h-225z" />
<glyph unicode="&#x201a;" horiz-adv-x="638" d="M-25 -281l279 582h281l-334 -582h-226z" />
<glyph unicode="&#x201c;" horiz-adv-x="1075" d="M125 811l336 582h223l-276 -582h-283zM561 811l336 582h225l-278 -582h-283z" />
<glyph unicode="&#x201d;" horiz-adv-x="1075" d="M125 811l278 582h281l-334 -582h-225zM561 811l279 582h282l-336 -582h-225z" />
<glyph unicode="&#x201e;" horiz-adv-x="1075" d="M-25 -281l279 582h281l-334 -582h-226zM412 -281l278 582h283l-336 -582h-225z" />
<glyph unicode="&#x2026;" horiz-adv-x="1832" d="M63 182q0 86 60 146.5t145 60.5q89 0 150 -61t61 -152q0 -83 -61 -143t-144 -60q-86 0 -148.5 62t-62.5 147zM674 182q0 86 60 146.5t145 60.5q89 0 150 -61t61 -152q0 -83 -61 -143t-144 -60q-86 0 -148.5 62t-62.5 147zM1286 182q0 86 60 146.5t145 60.5q89 0 150 -61 t61 -152q0 -83 -61 -143t-144 -60q-86 0 -148.5 62t-62.5 147z" />
<glyph unicode="&#x202f;" horiz-adv-x="367" />
<glyph unicode="&#x2039;" horiz-adv-x="655" d="M78 539l377 364l127 -131l-256 -250l215 -329l-166 -113z" />
<glyph unicode="&#x203a;" horiz-adv-x="655" d="M84 238l256 249l-215 332l166 113l297 -461l-377 -365z" />
<glyph unicode="&#x205f;" horiz-adv-x="459" />
<glyph unicode="&#x20ac;" horiz-adv-x="1460" d="M49 598l88 176h121q40 283 248.5 452t517.5 169q255 0 438 -125l-164 -330q-102 127 -290 127q-146 0 -254 -80t-140 -213h607l-88 -174h-523q26 -140 126.5 -219.5t250.5 -79.5q173 0 281 105l-31 -402q-124 -31 -246 -31q-312 0 -511 168.5t-228 456.5h-203z" />
<glyph unicode="&#x2122;" horiz-adv-x="1724" d="M82 1174l24 192h582l-22 -192h-172l-74 -586h-234l72 586h-176zM633 588l258 778h227l66 -262q26 -111 33 -150l221 412h235l35 -778h-235l-15 416l-223 -416h-129l-76 299q-11 45 -26 131q-7 -36 -25 -94l-105 -336h-241z" />
<glyph unicode="&#xe000;" horiz-adv-x="911" d="M0 0v911h911v-911h-911z" />
</font>
</defs>
</svg>
